<?xml version="1.0" standalone="no"?>
<!DOCTYPE svg PUBLIC "-//W3C//DTD SVG 20010904//EN"
 "http://www.w3.org/TR/2001/REC-SVG-20010904/DTD/svg10.dtd">
<svg version="1.0" xmlns="http://www.w3.org/2000/svg"
 width="112.000000pt" height="112.000000pt" viewBox="0 0 112.000000 112.000000"
 preserveAspectRatio="xMidYMid meet">

<g transform="translate(0.000000,112.000000) scale(0.100000,-0.100000)"
fill="#000000" stroke="none">
<path d="M358 1029 c-15 -8 -18 -25 -18 -94 0 -81 -1 -87 -35 -131 -43 -55
-51 -85 -35 -123 16 -39 73 -95 129 -127 115 -66 171 -139 171 -220 l0 -39
-19 31 c-27 44 -85 86 -183 133 -80 38 -117 68 -160 131 -17 25 -17 25 -17
-35 -1 -101 42 -163 172 -252 60 -42 104 -104 113 -158 10 -67 2 -69 -42 -12
-25 32 -71 73 -115 102 -41 26 -102 75 -135 108 l-62 59 5 -53 c7 -89 21 -118
94 -190 38 -38 69 -76 69 -84 0 -12 17 -15 93 -15 89 0 94 1 118 27 94 104
157 234 179 366 5 33 15 64 22 69 20 12 81 9 108 -7 38 -22 46 -18 64 25 22
55 21 85 -1 74 -36 -17 -120 -10 -150 12 -37 27 -40 50 -12 80 26 27 51 31 69
9 7 -8 23 -15 37 -15 15 0 26 -8 31 -20 l8 -21 21 21 c12 11 33 20 46 20 25 0
49 22 60 53 5 13 -2 22 -28 34 -41 19 -35 38 8 29 l31 -6 -28 29 c-15 16 -46
37 -69 47 -23 11 -53 32 -66 47 -48 57 -121 78 -316 92 -49 3 -101 8 -115 10
-14 3 -33 0 -42 -6z m132 -58 c0 -12 -81 -52 -92 -45 -12 7 -10 28 4 42 14 14
88 16 88 3z m83 -84 c-4 -36 0 -51 26 -92 17 -27 31 -60 31 -72 0 -23 -2 -23
-46 14 -80 66 -89 109 -36 166 14 15 27 27 28 27 1 0 -1 -19 -3 -43z m183 27
c55 -26 40 -75 -19 -60 -13 3 -41 21 -62 40 l-40 35 43 1 c24 0 59 -7 78 -16z
m-289 -201 c7 -11 30 -31 50 -44 79 -47 123 -102 123 -155 l0 -27 -36 36 c-20
20 -66 54 -103 76 -91 54 -114 80 -113 130 0 22 9 54 18 73 l18 33 15 -50 c9
-27 22 -60 28 -72z"/>
<path d="M716 443 c9 -45 -14 -171 -42 -232 -13 -30 -40 -76 -59 -102 l-35
-49 71 0 70 0 23 53 c46 103 52 202 16 284 -27 65 -53 91 -44 46z"/>
<path d="M848 282 c3 -50 -2 -67 -37 -137 l-40 -80 56 -3 c30 -2 58 -1 61 2 2
3 7 47 10 99 5 95 -5 136 -40 164 -11 9 -12 1 -10 -45z"/>
<path d="M978 192 c2 -15 -5 -51 -16 -80 l-20 -52 54 0 c54 0 54 0 54 30 0 37
-19 77 -52 108 l-25 22 5 -28z"/>
<path d="M90 146 c0 -76 10 -86 85 -86 74 0 79 14 17 51 -21 12 -52 36 -69 53
l-33 30 0 -48z"/>
</g>
</svg>
